<?xml version="1.0" encoding="iso-8859-1"?>
<!-- Generator: Adobe Illustrator 19.0.0, SVG Export Plug-In . SVG Version: 6.00 Build 0)  -->
<svg version="1.1" id="Capa_1" xmlns="http://www.w3.org/2000/svg" xmlns:xlink="http://www.w3.org/1999/xlink" x="0px" y="0px"
	 viewBox="0 0 280.022 280.022" style="enable-background:new 0 0 280.022 280.022;" xml:space="preserve">
<g>
	<g>
		<path style="fill:#8E529E;" d="M65.988,177.49v57.953H37.012v-3.346c0-20.441-16.571-37.012-37.012-37.012l0,0v40.358
			c0,20.441,16.571,37.012,37.012,37.012h28.976c20.441,0,37.011-16.571,37.011-37.012V177.49H65.988z"/>
		<g>
			<circle style="fill:#D1819C;" cx="9.322" cy="224.972" r="6.099"/>
			<circle style="fill:#D1819C;" cx="12.407" cy="247.85" r="6.099"/>
			<circle style="fill:#D1819C;" cx="28.976" cy="263.286" r="6.099"/>
			<circle style="fill:#D1819C;" cx="53.582" cy="263.286" r="6.099"/>
		</g>
	</g>
	<g>
		<path style="fill:#A35EB5;" d="M102.999,177.49v57.953H74.023v-3.346c0-20.441-16.571-37.012-37.012-37.012l0,0v40.358
			c0,20.441,16.57,37.012,37.011,37.012H103c20.44,0,37.011-16.571,37.011-37.012V177.49H102.999z"/>
		<g>
			<circle style="fill:#FA9ABA;" cx="46.333" cy="224.972" r="6.099"/>
			<circle style="fill:#FA9ABA;" cx="49.418" cy="247.85" r="6.099"/>
			<circle style="fill:#FA9ABA;" cx="65.988" cy="263.286" r="6.099"/>
			<circle style="fill:#FA9ABA;" cx="90.593" cy="263.286" r="6.099"/>
		</g>
	</g>
	<g>
		<path style="fill:#8E529E;" d="M214.034,177.49v57.953h28.977v-3.346c0-20.441,16.571-37.012,37.012-37.012l0,0v40.358
			c0,20.441-16.57,37.012-37.012,37.012h-28.977c-20.44,0-37.011-16.571-37.011-37.012V177.49H214.034z"/>
		<g>
			<circle style="fill:#D1819C;" cx="270.701" cy="224.972" r="6.1"/>
			<circle style="fill:#D1819C;" cx="267.616" cy="247.85" r="6.1"/>
			<circle style="fill:#D1819C;" cx="251.046" cy="263.286" r="6.099"/>
			<circle style="fill:#D1819C;" cx="226.441" cy="263.286" r="6.099"/>
		</g>
	</g>
	<g>
		<path style="fill:#A35EB5;" d="M177.023,177.49v57.953h28.976v-3.346c0-20.441,16.571-37.012,37.012-37.012l0,0v40.358
			c0,20.441-16.57,37.012-37.012,37.012h-28.976c-20.441,0-37.012-16.571-37.012-37.012V177.49H177.023z"/>
		<g>
			<circle style="fill:#FA9ABA;" cx="233.689" cy="224.972" r="6.1"/>
			<circle style="fill:#FA9ABA;" cx="230.604" cy="247.85" r="6.1"/>
			<circle style="fill:#FA9ABA;" cx="214.035" cy="263.286" r="6.099"/>
			<circle style="fill:#FA9ABA;" cx="189.429" cy="263.286" r="6.099"/>
		</g>
	</g>
	<path style="fill:#A35EB5;" d="M149.839,7.568h-19.655c-35.455,0-64.196,28.741-64.196,64.196V177.49h148.046V71.764
		C214.034,36.309,185.293,7.568,149.839,7.568z"/>
	<path style="fill:#8E529E;" d="M214.034,140.746h-0.268c-20.293,0-36.743,16.451-36.743,36.744v0.001h37.011V140.746z"/>
	<path style="fill:#8E529E;" d="M65.988,140.746h0.268c20.293,0,36.744,16.451,36.744,36.744v0.001H65.988V140.746z"/>
	<g>
		<circle style="fill:#FFFFFF;" cx="93.778" cy="101.119" r="16.291"/>
		<circle style="fill:#00ADBB;" cx="93.778" cy="101.119" r="8.146"/>
	</g>
	<g>
		<circle style="fill:#FFFFFF;" cx="186.245" cy="101.119" r="16.291"/>
		<circle style="fill:#00ADBB;" cx="186.245" cy="101.119" r="8.146"/>
	</g>
	<circle style="fill:#8E529E;" cx="172.356" cy="32.189" r="12.74"/>
	<circle style="fill:#8E529E;" cx="189.429" cy="49.256" r="6.099"/>
</g>
<g>
</g>
<g>
</g>
<g>
</g>
<g>
</g>
<g>
</g>
<g>
</g>
<g>
</g>
<g>
</g>
<g>
</g>
<g>
</g>
<g>
</g>
<g>
</g>
<g>
</g>
<g>
</g>
<g>
</g>
</svg>
